G04 Layer: TopSilkLayer*
G04 EasyEDA v5.9.42, Mon, 25 Mar 2019 11:55:45 GMT*
G04 b1db4e5ec28044f985901455ebfe0152*
G04 Gerber Generator version 0.2*
G04 Scale: 100 percent, Rotated: No, Reflected: No *
G04 Dimensions in millimeters *
G04 leading zeros omitted , absolute positions ,3 integer and 3 decimal *
%FSLAX33Y33*%
%MOMM*%
G90*
G71D02*

%ADD10C,0.254000*%
%ADD11C,0.152400*%
%ADD12C,0.203200*%
%ADD28C,0.149987*%
%ADD29C,0.202999*%

%LPD*%
G54D10*
G01X254Y30734D02*
G01X254Y12954D01*
G01X254Y12954D02*
G01X43434Y12954D01*
G01X43434Y12954D02*
G01X43434Y30734D01*
G01X43434Y30734D02*
G01X254Y30734D01*
G01X4064Y25654D02*
G01X-3556Y25654D01*
G01X-3556Y18034D01*
G01X4064Y18034D01*
G01X4064Y25654D01*
G54D28*
G01X47498Y19177D02*
G01X44069Y19177D01*
G01X47498Y28829D02*
G01X44069Y28829D01*
G01X48641Y18669D02*
G01X48641Y29337D01*
G01X47625Y22225D02*
G01X48895Y22225D01*
G01X47625Y25781D02*
G01X48895Y25781D01*
G01X47498Y29337D02*
G01X47498Y18669D01*
G01X48895Y29337D02*
G01X48895Y18669D01*
G01X44069Y18669D01*
G01X44069Y29337D01*
G01X48895Y29337D01*
G01X47498Y7620D02*
G01X44069Y7620D01*
G01X47498Y17272D02*
G01X44069Y17272D01*
G01X48641Y7112D02*
G01X48641Y17780D01*
G01X47625Y10668D02*
G01X48895Y10668D01*
G01X47625Y14224D02*
G01X48895Y14224D01*
G01X47498Y17780D02*
G01X47498Y7112D01*
G01X48895Y17780D02*
G01X48895Y7112D01*
G01X44069Y7112D01*
G01X44069Y17780D01*
G01X48895Y17780D01*
G54D10*
G01X18489Y8279D02*
G01X14530Y8279D01*
G01X4089Y711D02*
G01X4089Y3098D01*
G01X4089Y3098D02*
G01X10388Y3098D01*
G01X10388Y3098D02*
G01X10388Y711D01*
G01X10388Y711D02*
G01X4089Y711D01*
G01X40284Y35001D02*
G01X40284Y37388D01*
G01X40284Y37388D02*
G01X46583Y37388D01*
G01X46583Y37388D02*
G01X46583Y35001D01*
G01X46583Y35001D02*
G01X40284Y35001D01*
G01X40157Y31445D02*
G01X40157Y33832D01*
G01X40157Y33832D02*
G01X46456Y33832D01*
G01X46456Y33832D02*
G01X46456Y31445D01*
G01X46456Y31445D02*
G01X40157Y31445D01*
G01X25679Y9347D02*
G01X25679Y11734D01*
G01X25679Y11734D02*
G01X31978Y11734D01*
G01X31978Y11734D02*
G01X31978Y9347D01*
G01X31978Y9347D02*
G01X25679Y9347D01*
G01X3454Y31572D02*
G01X3454Y33959D01*
G01X3454Y33959D02*
G01X9753Y33959D01*
G01X9753Y33959D02*
G01X9753Y31572D01*
G01X9753Y31572D02*
G01X3454Y31572D01*
G01X23332Y34333D02*
G01X22733Y33933D01*
G01X22133Y34333D01*
G01X23332Y34333D01*
G01X23809Y36645D02*
G01X23809Y31646D01*
G01X21610Y31646D01*
G01X21610Y36645D01*
G01X23809Y36645D01*
G01X20284Y34460D02*
G01X19685Y34060D01*
G01X19085Y34460D01*
G01X20284Y34460D01*
G01X20761Y36772D02*
G01X20761Y31773D01*
G01X18562Y31773D01*
G01X18562Y36772D01*
G01X20761Y36772D01*
G01X17490Y34460D02*
G01X16891Y34060D01*
G01X16291Y34460D01*
G01X17490Y34460D01*
G01X17967Y36772D02*
G01X17967Y31773D01*
G01X15768Y31773D01*
G01X15768Y36772D01*
G01X17967Y36772D01*
G01X14569Y34460D02*
G01X13970Y34060D01*
G01X13370Y34460D01*
G01X14569Y34460D01*
G01X15046Y36772D02*
G01X15046Y31773D01*
G01X12847Y31773D01*
G01X12847Y36772D01*
G01X15046Y36772D01*
G54D12*
G01X2921Y37846D02*
G01X1016Y37846D01*
G01X1016Y35306D01*
G01X8636Y35306D01*
G01X8636Y37846D01*
G54D29*
G01X8636Y37846D02*
G01X2921Y37846D01*
G54D12*
G01X28956Y37592D02*
G01X27051Y37592D01*
G01X27051Y35052D01*
G01X34671Y35052D01*
G01X34671Y37592D01*
G54D29*
G01X34671Y37592D02*
G01X28956Y37592D01*
G54D10*
G01X11911Y5586D02*
G01X6861Y5586D01*
G01X6861Y11136D01*
G01X11961Y11136D01*
G01X11961Y5586D01*
G01X27457Y31572D02*
G01X27457Y33959D01*
G01X27457Y33959D02*
G01X33756Y33959D01*
G01X33756Y33959D02*
G01X33756Y31572D01*
G01X33756Y31572D02*
G01X27457Y31572D01*
G01X5688Y5586D02*
G01X638Y5586D01*
G01X638Y11136D01*
G01X5738Y11136D01*
G01X5738Y5586D01*
G01X77000Y35151D02*
G01X77000Y2948D01*
G01X77000Y2948D02*
G01X49999Y2948D01*
G01X49999Y2948D02*
G01X49999Y35151D01*
G01X49999Y35151D02*
G01X77000Y35151D01*
G01X14097Y0D02*
G01X14097Y8128D01*
G01X24511Y8128D01*
G01X24511Y0D01*
G01X14097Y0D01*
G01X14351Y1524D02*
G01X14351Y6604D01*
G01X24257Y6604D01*
G01X24257Y1524D01*
G01X14351Y1524D01*
G01X36322Y8255D02*
G01X36322Y127D01*
G01X25908Y127D01*
G01X25908Y8255D01*
G01X36322Y8255D01*
G01X36068Y6731D02*
G01X36068Y1651D01*
G01X26162Y1651D01*
G01X26162Y6731D01*
G01X36068Y6731D01*
G01X37590Y6503D02*
G01X37590Y11553D01*
G01X43140Y11553D01*
G01X43140Y6453D01*
G01X37590Y6453D01*
G01X42492Y1040D02*
G01X38533Y1040D01*
G54D11*
G01X41528Y21910D02*
G01X42306Y21910D01*
G01X42463Y21960D01*
G01X42567Y22064D01*
G01X42618Y22222D01*
G01X42618Y22326D01*
G01X42567Y22481D01*
G01X42463Y22585D01*
G01X42306Y22636D01*
G01X41528Y22636D01*
G01X41734Y22979D02*
G01X41683Y23083D01*
G01X41528Y23241D01*
G01X42618Y23241D01*
G54D12*
G01X40027Y27939D02*
G01X39057Y27939D01*
G01X40027Y27939D02*
G01X40027Y27617D01*
G01X39982Y27477D01*
G01X39890Y27386D01*
G01X39796Y27340D01*
G01X39659Y27292D01*
G01X39428Y27292D01*
G01X39288Y27340D01*
G01X39197Y27386D01*
G01X39105Y27477D01*
G01X39057Y27617D01*
G01X39057Y27939D01*
G01X39842Y26987D02*
G01X39890Y26896D01*
G01X40027Y26758D01*
G01X39057Y26758D01*
G01X40213Y25620D02*
G01X38734Y26454D01*
G01X40027Y24993D02*
G01X39057Y24993D01*
G01X40027Y25316D02*
G01X40027Y24670D01*
G01X40027Y24366D02*
G01X39057Y23718D01*
G01X40027Y23718D02*
G01X39057Y24366D01*
G01X37315Y17594D02*
G01X37409Y17640D01*
G01X37500Y17734D01*
G01X37546Y17825D01*
G01X37546Y18011D01*
G01X37500Y18102D01*
G01X37409Y18196D01*
G01X37315Y18242D01*
G01X37178Y18288D01*
G01X36946Y18288D01*
G01X36807Y18242D01*
G01X36715Y18196D01*
G01X36624Y18102D01*
G01X36576Y18011D01*
G01X36576Y17825D01*
G01X36624Y17734D01*
G01X36715Y17640D01*
G01X36807Y17594D01*
G01X36946Y17594D01*
G01X36946Y17825D02*
G01X36946Y17594D01*
G01X37546Y17289D02*
G01X36576Y17289D01*
G01X37546Y17289D02*
G01X36576Y16644D01*
G01X37546Y16644D02*
G01X36576Y16644D01*
G01X37546Y16339D02*
G01X36576Y16339D01*
G01X37546Y16339D02*
G01X37546Y16014D01*
G01X37500Y15877D01*
G01X37409Y15786D01*
G01X37315Y15737D01*
G01X37178Y15692D01*
G01X36946Y15692D01*
G01X36807Y15737D01*
G01X36715Y15786D01*
G01X36624Y15877D01*
G01X36576Y16014D01*
G01X36576Y16339D01*
G01X32202Y18125D02*
G01X31369Y18125D01*
G01X31785Y18542D02*
G01X31785Y17711D01*
G01X32339Y16852D02*
G01X32339Y17312D01*
G01X31925Y17360D01*
G01X31971Y17312D01*
G01X32016Y17175D01*
G01X32016Y17035D01*
G01X31971Y16898D01*
G01X31877Y16804D01*
G01X31739Y16758D01*
G01X31645Y16758D01*
G01X31508Y16804D01*
G01X31417Y16898D01*
G01X31369Y17035D01*
G01X31369Y17175D01*
G01X31417Y17312D01*
G01X31463Y17360D01*
G01X31554Y17406D01*
G01X32339Y16454D02*
G01X31369Y16085D01*
G01X32339Y15714D02*
G01X31369Y16085D01*
G01X4653Y28067D02*
G01X3682Y28067D01*
G01X4653Y28067D02*
G01X4653Y27744D01*
G01X4607Y27604D01*
G01X4516Y27513D01*
G01X4422Y27467D01*
G01X4284Y27419D01*
G01X4053Y27419D01*
G01X3914Y27467D01*
G01X3822Y27513D01*
G01X3731Y27604D01*
G01X3682Y27744D01*
G01X3682Y28067D01*
G01X4467Y27114D02*
G01X4516Y27023D01*
G01X4653Y26885D01*
G01X3682Y26885D01*
G01X4422Y26532D02*
G01X4467Y26532D01*
G01X4561Y26487D01*
G01X4607Y26441D01*
G01X4653Y26349D01*
G01X4653Y26164D01*
G01X4607Y26073D01*
G01X4561Y26024D01*
G01X4467Y25979D01*
G01X4376Y25979D01*
G01X4284Y26024D01*
G01X4145Y26118D01*
G01X3682Y26581D01*
G01X3682Y25933D01*
G01X40086Y17907D02*
G01X39116Y17538D01*
G01X40086Y17167D02*
G01X39116Y17538D01*
G01X40086Y16863D02*
G01X39116Y16863D01*
G01X40086Y16558D02*
G01X39116Y16558D01*
G01X40086Y16558D02*
G01X39116Y15913D01*
G01X40086Y15913D02*
G01X39116Y15913D01*
G01X4653Y17907D02*
G01X3682Y17907D01*
G01X4653Y17907D02*
G01X4653Y17584D01*
G01X4607Y17444D01*
G01X4516Y17353D01*
G01X4422Y17307D01*
G01X4284Y17259D01*
G01X4053Y17259D01*
G01X3914Y17307D01*
G01X3822Y17353D01*
G01X3731Y17444D01*
G01X3682Y17584D01*
G01X3682Y17907D01*
G01X4467Y16954D02*
G01X4516Y16863D01*
G01X4653Y16725D01*
G01X3682Y16725D01*
G01X4653Y16327D02*
G01X4653Y15819D01*
G01X4284Y16095D01*
G01X4284Y15958D01*
G01X4239Y15864D01*
G01X4190Y15819D01*
G01X4053Y15773D01*
G01X3959Y15773D01*
G01X3822Y15819D01*
G01X3731Y15913D01*
G01X3682Y16050D01*
G01X3682Y16189D01*
G01X3731Y16327D01*
G01X3776Y16372D01*
G01X3868Y16421D01*
G01X32108Y27500D02*
G01X32202Y27546D01*
G01X32293Y27640D01*
G01X32339Y27731D01*
G01X32339Y27917D01*
G01X32293Y28008D01*
G01X32202Y28102D01*
G01X32108Y28148D01*
G01X31971Y28194D01*
G01X31739Y28194D01*
G01X31600Y28148D01*
G01X31508Y28102D01*
G01X31417Y28008D01*
G01X31369Y27917D01*
G01X31369Y27731D01*
G01X31417Y27640D01*
G01X31508Y27546D01*
G01X31600Y27500D01*
G01X31739Y27500D01*
G01X31739Y27731D02*
G01X31739Y27500D01*
G01X32339Y27195D02*
G01X31369Y27195D01*
G01X32339Y27195D02*
G01X31369Y26550D01*
G01X32339Y26550D02*
G01X31369Y26550D01*
G01X32339Y26245D02*
G01X31369Y26245D01*
G01X32339Y26245D02*
G01X32339Y25920D01*
G01X32293Y25783D01*
G01X32202Y25692D01*
G01X32108Y25643D01*
G01X31971Y25598D01*
G01X31739Y25598D01*
G01X31600Y25643D01*
G01X31508Y25692D01*
G01X31417Y25783D01*
G01X31369Y25920D01*
G01X31369Y26245D01*
G01X37614Y28321D02*
G01X36644Y28321D01*
G01X37614Y28321D02*
G01X37614Y27998D01*
G01X37569Y27858D01*
G01X37477Y27767D01*
G01X37383Y27721D01*
G01X37246Y27673D01*
G01X37015Y27673D01*
G01X36875Y27721D01*
G01X36784Y27767D01*
G01X36692Y27858D01*
G01X36644Y27998D01*
G01X36644Y28321D01*
G01X37614Y27091D02*
G01X37569Y27231D01*
G01X37429Y27322D01*
G01X37200Y27368D01*
G01X37061Y27368D01*
G01X36829Y27322D01*
G01X36692Y27231D01*
G01X36644Y27091D01*
G01X36644Y27000D01*
G01X36692Y26860D01*
G01X36829Y26769D01*
G01X37061Y26723D01*
G01X37200Y26723D01*
G01X37429Y26769D01*
G01X37569Y26860D01*
G01X37614Y27000D01*
G01X37614Y27091D01*
G01X37800Y25587D02*
G01X36321Y26418D01*
G01X37614Y25283D02*
G01X36644Y25283D01*
G01X37614Y25283D02*
G01X37614Y24866D01*
G01X37569Y24726D01*
G01X37523Y24681D01*
G01X37429Y24635D01*
G01X37337Y24635D01*
G01X37246Y24681D01*
G01X37200Y24726D01*
G01X37152Y24866D01*
G01X37152Y25283D01*
G01X37152Y24958D02*
G01X36644Y24635D01*
G01X37614Y24330D02*
G01X36644Y23685D01*
G01X37614Y23685D02*
G01X36644Y24330D01*
G01X35133Y28194D02*
G01X34162Y28194D01*
G01X35133Y28194D02*
G01X35133Y27777D01*
G01X35087Y27640D01*
G01X35041Y27594D01*
G01X34947Y27546D01*
G01X34856Y27546D01*
G01X34764Y27594D01*
G01X34719Y27640D01*
G01X34670Y27777D01*
G01X34670Y28194D01*
G01X34670Y27871D02*
G01X34162Y27546D01*
G01X35133Y27241D02*
G01X34162Y27241D01*
G01X35133Y27241D02*
G01X35133Y26642D01*
G01X34670Y27241D02*
G01X34670Y26873D01*
G01X34162Y27241D02*
G01X34162Y26642D01*
G01X34996Y25692D02*
G01X35087Y25783D01*
G01X35133Y25920D01*
G01X35133Y26106D01*
G01X35087Y26245D01*
G01X34996Y26337D01*
G01X34902Y26337D01*
G01X34810Y26291D01*
G01X34764Y26245D01*
G01X34719Y26151D01*
G01X34625Y25875D01*
G01X34579Y25783D01*
G01X34533Y25737D01*
G01X34439Y25692D01*
G01X34302Y25692D01*
G01X34211Y25783D01*
G01X34162Y25920D01*
G01X34162Y26106D01*
G01X34211Y26245D01*
G01X34302Y26337D01*
G01X35133Y25387D02*
G01X34162Y25387D01*
G01X35133Y25387D02*
G01X35133Y24785D01*
G01X34670Y25387D02*
G01X34670Y25016D01*
G01X34162Y25387D02*
G01X34162Y24785D01*
G01X35133Y24157D02*
G01X34162Y24157D01*
G01X35133Y24480D02*
G01X35133Y23835D01*
G01X29926Y28448D02*
G01X28956Y28448D01*
G01X29926Y28448D02*
G01X29926Y28125D01*
G01X29880Y27985D01*
G01X29789Y27894D01*
G01X29695Y27848D01*
G01X29558Y27800D01*
G01X29326Y27800D01*
G01X29187Y27848D01*
G01X29095Y27894D01*
G01X29004Y27985D01*
G01X28956Y28125D01*
G01X28956Y28448D01*
G01X29695Y27449D02*
G01X29740Y27449D01*
G01X29834Y27404D01*
G01X29880Y27358D01*
G01X29926Y27266D01*
G01X29926Y27081D01*
G01X29880Y26987D01*
G01X29834Y26941D01*
G01X29740Y26896D01*
G01X29649Y26896D01*
G01X29558Y26941D01*
G01X29418Y27035D01*
G01X28956Y27495D01*
G01X28956Y26850D01*
G01X27513Y28194D02*
G01X26543Y28194D01*
G01X27513Y28194D02*
G01X27513Y27871D01*
G01X27467Y27731D01*
G01X27376Y27640D01*
G01X27282Y27594D01*
G01X27145Y27546D01*
G01X26913Y27546D01*
G01X26774Y27594D01*
G01X26682Y27640D01*
G01X26591Y27731D01*
G01X26543Y27871D01*
G01X26543Y28194D01*
G01X27513Y27150D02*
G01X27513Y26642D01*
G01X27145Y26918D01*
G01X27145Y26781D01*
G01X27099Y26687D01*
G01X27051Y26642D01*
G01X26913Y26596D01*
G01X26819Y26596D01*
G01X26682Y26642D01*
G01X26591Y26733D01*
G01X26543Y26873D01*
G01X26543Y27012D01*
G01X26591Y27150D01*
G01X26637Y27195D01*
G01X26728Y27241D01*
G01X24846Y28194D02*
G01X23875Y28194D01*
G01X24846Y28194D02*
G01X24846Y27871D01*
G01X24800Y27731D01*
G01X24709Y27640D01*
G01X24615Y27594D01*
G01X24477Y27546D01*
G01X24246Y27546D01*
G01X24107Y27594D01*
G01X24015Y27640D01*
G01X23924Y27731D01*
G01X23875Y27871D01*
G01X23875Y28194D01*
G01X24846Y26781D02*
G01X24201Y27241D01*
G01X24201Y26550D01*
G01X24846Y26781D02*
G01X23875Y26781D01*
G01X22433Y28194D02*
G01X21462Y28194D01*
G01X22433Y28194D02*
G01X22433Y27871D01*
G01X22387Y27731D01*
G01X22296Y27640D01*
G01X22202Y27594D01*
G01X22064Y27546D01*
G01X21833Y27546D01*
G01X21694Y27594D01*
G01X21602Y27640D01*
G01X21511Y27731D01*
G01X21462Y27871D01*
G01X21462Y28194D01*
G01X22433Y26687D02*
G01X22433Y27150D01*
G01X22019Y27195D01*
G01X22064Y27150D01*
G01X22110Y27012D01*
G01X22110Y26873D01*
G01X22064Y26733D01*
G01X21970Y26642D01*
G01X21833Y26596D01*
G01X21739Y26596D01*
G01X21602Y26642D01*
G01X21511Y26733D01*
G01X21462Y26873D01*
G01X21462Y27012D01*
G01X21511Y27150D01*
G01X21556Y27195D01*
G01X21648Y27241D01*
G01X19893Y27939D02*
G01X18922Y27939D01*
G01X19893Y27939D02*
G01X19893Y27617D01*
G01X19847Y27477D01*
G01X19756Y27386D01*
G01X19662Y27340D01*
G01X19524Y27292D01*
G01X19293Y27292D01*
G01X19154Y27340D01*
G01X19062Y27386D01*
G01X18971Y27477D01*
G01X18922Y27617D01*
G01X18922Y27939D01*
G01X19756Y26433D02*
G01X19847Y26479D01*
G01X19893Y26619D01*
G01X19893Y26710D01*
G01X19847Y26850D01*
G01X19707Y26941D01*
G01X19479Y26987D01*
G01X19248Y26987D01*
G01X19062Y26941D01*
G01X18971Y26850D01*
G01X18922Y26710D01*
G01X18922Y26664D01*
G01X18971Y26527D01*
G01X19062Y26433D01*
G01X19199Y26388D01*
G01X19248Y26388D01*
G01X19385Y26433D01*
G01X19479Y26527D01*
G01X19524Y26664D01*
G01X19524Y26710D01*
G01X19479Y26850D01*
G01X19385Y26941D01*
G01X19248Y26987D01*
G01X17353Y27813D02*
G01X16382Y27813D01*
G01X17353Y27813D02*
G01X17353Y27490D01*
G01X17307Y27350D01*
G01X17216Y27259D01*
G01X17122Y27213D01*
G01X16984Y27165D01*
G01X16753Y27165D01*
G01X16614Y27213D01*
G01X16522Y27259D01*
G01X16431Y27350D01*
G01X16382Y27490D01*
G01X16382Y27813D01*
G01X17353Y26215D02*
G01X16382Y26677D01*
G01X17353Y26860D02*
G01X17353Y26215D01*
G01X14686Y28067D02*
G01X13715Y28067D01*
G01X14686Y28067D02*
G01X14686Y27744D01*
G01X14640Y27604D01*
G01X14549Y27513D01*
G01X14455Y27467D01*
G01X14317Y27419D01*
G01X14086Y27419D01*
G01X13947Y27467D01*
G01X13855Y27513D01*
G01X13764Y27604D01*
G01X13715Y27744D01*
G01X13715Y28067D01*
G01X14686Y26885D02*
G01X14640Y27023D01*
G01X14549Y27068D01*
G01X14455Y27068D01*
G01X14363Y27023D01*
G01X14317Y26931D01*
G01X14272Y26746D01*
G01X14223Y26606D01*
G01X14132Y26515D01*
G01X14041Y26469D01*
G01X13901Y26469D01*
G01X13809Y26515D01*
G01X13764Y26560D01*
G01X13715Y26700D01*
G01X13715Y26885D01*
G01X13764Y27023D01*
G01X13809Y27068D01*
G01X13901Y27114D01*
G01X14041Y27114D01*
G01X14132Y27068D01*
G01X14223Y26977D01*
G01X14272Y26837D01*
G01X14317Y26654D01*
G01X14363Y26560D01*
G01X14455Y26515D01*
G01X14549Y26515D01*
G01X14640Y26560D01*
G01X14686Y26700D01*
G01X14686Y26885D01*
G01X12273Y28320D02*
G01X11302Y28320D01*
G01X12273Y28320D02*
G01X12273Y27998D01*
G01X12227Y27858D01*
G01X12136Y27767D01*
G01X12042Y27721D01*
G01X11904Y27673D01*
G01X11673Y27673D01*
G01X11534Y27721D01*
G01X11442Y27767D01*
G01X11351Y27858D01*
G01X11302Y27998D01*
G01X11302Y28320D01*
G01X11950Y26769D02*
G01X11810Y26814D01*
G01X11719Y26908D01*
G01X11673Y27045D01*
G01X11673Y27091D01*
G01X11719Y27231D01*
G01X11810Y27322D01*
G01X11950Y27368D01*
G01X11996Y27368D01*
G01X12136Y27322D01*
G01X12227Y27231D01*
G01X12273Y27091D01*
G01X12273Y27045D01*
G01X12227Y26908D01*
G01X12136Y26814D01*
G01X11950Y26769D01*
G01X11719Y26769D01*
G01X11488Y26814D01*
G01X11351Y26908D01*
G01X11302Y27045D01*
G01X11302Y27139D01*
G01X11351Y27277D01*
G01X11442Y27322D01*
G01X9860Y28194D02*
G01X8889Y28194D01*
G01X9860Y28194D02*
G01X9860Y27871D01*
G01X9814Y27731D01*
G01X9723Y27640D01*
G01X9629Y27594D01*
G01X9491Y27546D01*
G01X9260Y27546D01*
G01X9121Y27594D01*
G01X9029Y27640D01*
G01X8938Y27731D01*
G01X8889Y27871D01*
G01X8889Y28194D01*
G01X9674Y27241D02*
G01X9723Y27150D01*
G01X9860Y27012D01*
G01X8889Y27012D01*
G01X9860Y26428D02*
G01X9814Y26568D01*
G01X9674Y26659D01*
G01X9446Y26708D01*
G01X9306Y26708D01*
G01X9075Y26659D01*
G01X8938Y26568D01*
G01X8889Y26428D01*
G01X8889Y26337D01*
G01X8938Y26200D01*
G01X9075Y26106D01*
G01X9306Y26060D01*
G01X9446Y26060D01*
G01X9674Y26106D01*
G01X9814Y26200D01*
G01X9860Y26337D01*
G01X9860Y26428D01*
G01X7066Y27940D02*
G01X6095Y27940D01*
G01X7066Y27940D02*
G01X7066Y27617D01*
G01X7020Y27477D01*
G01X6929Y27386D01*
G01X6835Y27340D01*
G01X6697Y27292D01*
G01X6466Y27292D01*
G01X6327Y27340D01*
G01X6235Y27386D01*
G01X6144Y27477D01*
G01X6095Y27617D01*
G01X6095Y27940D01*
G01X6880Y26987D02*
G01X6929Y26896D01*
G01X7066Y26758D01*
G01X6095Y26758D01*
G01X6880Y26454D02*
G01X6929Y26360D01*
G01X7066Y26222D01*
G01X6095Y26222D01*
G01X7193Y18196D02*
G01X7193Y17688D01*
G01X6824Y17965D01*
G01X6824Y17825D01*
G01X6779Y17734D01*
G01X6730Y17688D01*
G01X6593Y17640D01*
G01X6499Y17640D01*
G01X6362Y17688D01*
G01X6271Y17780D01*
G01X6222Y17919D01*
G01X6222Y18056D01*
G01X6271Y18196D01*
G01X6316Y18242D01*
G01X6408Y18288D01*
G01X7193Y17335D02*
G01X6222Y16967D01*
G01X7193Y16598D02*
G01X6222Y16967D01*
G01X7193Y16200D02*
G01X7193Y15692D01*
G01X6824Y15968D01*
G01X6824Y15831D01*
G01X6779Y15737D01*
G01X6730Y15692D01*
G01X6593Y15646D01*
G01X6499Y15646D01*
G01X6362Y15692D01*
G01X6271Y15786D01*
G01X6222Y15923D01*
G01X6222Y16062D01*
G01X6271Y16200D01*
G01X6316Y16245D01*
G01X6408Y16294D01*
G01X9479Y18808D02*
G01X8508Y19177D01*
G01X9479Y18808D02*
G01X8508Y18437D01*
G01X8834Y19037D02*
G01X8834Y18577D01*
G01X9479Y18133D02*
G01X8508Y18133D01*
G01X9479Y18133D02*
G01X9479Y17716D01*
G01X9433Y17579D01*
G01X9387Y17533D01*
G01X9293Y17487D01*
G01X9202Y17487D01*
G01X9110Y17533D01*
G01X9065Y17579D01*
G01X9016Y17716D01*
G01X9016Y18133D01*
G01X9016Y17810D02*
G01X8508Y17487D01*
G01X9479Y17183D02*
G01X8508Y17183D01*
G01X9479Y17183D02*
G01X9479Y16581D01*
G01X9016Y17183D02*
G01X9016Y16812D01*
G01X8508Y17183D02*
G01X8508Y16581D01*
G01X9479Y16276D02*
G01X8508Y16276D01*
G01X9479Y16276D02*
G01X9479Y15676D01*
G01X9016Y16276D02*
G01X9016Y15908D01*
G01X12019Y16903D02*
G01X11048Y17272D01*
G01X12019Y16903D02*
G01X11048Y16532D01*
G01X11374Y17132D02*
G01X11374Y16672D01*
G01X12019Y15951D02*
G01X11973Y16090D01*
G01X11833Y16182D01*
G01X11605Y16228D01*
G01X11465Y16228D01*
G01X11234Y16182D01*
G01X11097Y16090D01*
G01X11048Y15951D01*
G01X11048Y15859D01*
G01X11097Y15720D01*
G01X11234Y15628D01*
G01X11465Y15582D01*
G01X11605Y15582D01*
G01X11833Y15628D01*
G01X11973Y15720D01*
G01X12019Y15859D01*
G01X12019Y15951D01*
G01X14559Y16649D02*
G01X13588Y17018D01*
G01X14559Y16649D02*
G01X13588Y16278D01*
G01X13914Y16878D02*
G01X13914Y16418D01*
G01X14373Y15974D02*
G01X14422Y15882D01*
G01X14559Y15742D01*
G01X13588Y15742D01*
G01X17099Y17030D02*
G01X16128Y17399D01*
G01X17099Y17030D02*
G01X16128Y16659D01*
G01X16454Y17259D02*
G01X16454Y16799D01*
G01X16868Y16309D02*
G01X16913Y16309D01*
G01X17007Y16263D01*
G01X17053Y16217D01*
G01X17099Y16123D01*
G01X17099Y15938D01*
G01X17053Y15847D01*
G01X17007Y15801D01*
G01X16913Y15755D01*
G01X16822Y15755D01*
G01X16730Y15801D01*
G01X16591Y15892D01*
G01X16128Y16355D01*
G01X16128Y15709D01*
G01X19639Y16903D02*
G01X18668Y17272D01*
G01X19639Y16903D02*
G01X18668Y16532D01*
G01X18994Y17132D02*
G01X18994Y16672D01*
G01X19639Y16136D02*
G01X19639Y15628D01*
G01X19270Y15905D01*
G01X19270Y15765D01*
G01X19225Y15674D01*
G01X19176Y15628D01*
G01X19039Y15582D01*
G01X18945Y15582D01*
G01X18808Y15628D01*
G01X18717Y15720D01*
G01X18668Y15859D01*
G01X18668Y15996D01*
G01X18717Y16136D01*
G01X18762Y16182D01*
G01X18854Y16228D01*
G01X22306Y17030D02*
G01X21335Y17399D01*
G01X22306Y17030D02*
G01X21335Y16659D01*
G01X21661Y17259D02*
G01X21661Y16799D01*
G01X22306Y15892D02*
G01X21661Y16355D01*
G01X21661Y15661D01*
G01X22306Y15892D02*
G01X21335Y15892D01*
G01X24592Y17030D02*
G01X23621Y17399D01*
G01X24592Y17030D02*
G01X23621Y16659D01*
G01X23947Y17259D02*
G01X23947Y16799D01*
G01X24592Y15801D02*
G01X24592Y16263D01*
G01X24178Y16309D01*
G01X24223Y16263D01*
G01X24269Y16123D01*
G01X24269Y15986D01*
G01X24223Y15847D01*
G01X24129Y15755D01*
G01X23992Y15709D01*
G01X23898Y15709D01*
G01X23761Y15755D01*
G01X23670Y15847D01*
G01X23621Y15986D01*
G01X23621Y16123D01*
G01X23670Y16263D01*
G01X23715Y16309D01*
G01X23807Y16355D01*
G01X27259Y16903D02*
G01X26289Y17272D01*
G01X27259Y16903D02*
G01X26289Y16532D01*
G01X26614Y17132D02*
G01X26614Y16672D01*
G01X27122Y15674D02*
G01X27213Y15720D01*
G01X27259Y15859D01*
G01X27259Y15951D01*
G01X27213Y16090D01*
G01X27073Y16182D01*
G01X26845Y16228D01*
G01X26614Y16228D01*
G01X26428Y16182D01*
G01X26337Y16090D01*
G01X26289Y15951D01*
G01X26289Y15905D01*
G01X26337Y15765D01*
G01X26428Y15674D01*
G01X26565Y15628D01*
G01X26614Y15628D01*
G01X26751Y15674D01*
G01X26845Y15765D01*
G01X26891Y15905D01*
G01X26891Y15951D01*
G01X26845Y16090D01*
G01X26751Y16182D01*
G01X26614Y16228D01*
G01X29672Y17030D02*
G01X28702Y17399D01*
G01X29672Y17030D02*
G01X28702Y16659D01*
G01X29027Y17259D02*
G01X29027Y16799D01*
G01X29672Y15709D02*
G01X28702Y16169D01*
G01X29672Y16355D02*
G01X29672Y15709D01*
G01X34879Y19685D02*
G01X33909Y19685D01*
G01X34879Y19685D02*
G01X34879Y19268D01*
G01X34833Y19131D01*
G01X34787Y19085D01*
G01X34693Y19037D01*
G01X34602Y19037D01*
G01X34511Y19085D01*
G01X34465Y19131D01*
G01X34417Y19268D01*
G01X34417Y19685D01*
G01X34417Y19362D02*
G01X33909Y19037D01*
G01X34879Y18732D02*
G01X33909Y18732D01*
G01X34879Y18732D02*
G01X34879Y18133D01*
G01X34417Y18732D02*
G01X34417Y18364D01*
G01X33909Y18732D02*
G01X33909Y18133D01*
G01X34742Y17183D02*
G01X34833Y17274D01*
G01X34879Y17411D01*
G01X34879Y17597D01*
G01X34833Y17736D01*
G01X34742Y17828D01*
G01X34648Y17828D01*
G01X34556Y17782D01*
G01X34511Y17736D01*
G01X34465Y17642D01*
G01X34371Y17365D01*
G01X34325Y17274D01*
G01X34279Y17228D01*
G01X34185Y17183D01*
G01X34048Y17183D01*
G01X33957Y17274D01*
G01X33909Y17411D01*
G01X33909Y17597D01*
G01X33957Y17736D01*
G01X34048Y17828D01*
G01X34879Y16878D02*
G01X33909Y16878D01*
G01X34879Y16878D02*
G01X34879Y16276D01*
G01X34417Y16878D02*
G01X34417Y16507D01*
G01X33909Y16878D02*
G01X33909Y16276D01*
G01X34879Y15648D02*
G01X33909Y15648D01*
G01X34879Y15971D02*
G01X34879Y15326D01*
G54D11*
G01X50418Y24980D02*
G01X51508Y24980D01*
G01X50418Y24617D02*
G01X50418Y25344D01*
G01X50418Y25791D02*
G01X50418Y26362D01*
G01X50832Y26052D01*
G01X50832Y26207D01*
G01X50886Y26311D01*
G01X50937Y26362D01*
G01X51092Y26415D01*
G01X51196Y26415D01*
G01X51353Y26362D01*
G01X51457Y26258D01*
G01X51508Y26103D01*
G01X51508Y25948D01*
G01X51457Y25791D01*
G01X51404Y25740D01*
G01X51300Y25686D01*
G01X50418Y11087D02*
G01X51508Y11087D01*
G01X50418Y10723D02*
G01X50418Y11450D01*
G01X50418Y12313D02*
G01X51145Y11793D01*
G01X51145Y12573D01*
G01X50418Y12313D02*
G01X51508Y12313D01*
G01X16098Y12372D02*
G01X16098Y11282D01*
G01X15735Y12372D02*
G01X16461Y12372D01*
G01X16804Y12166D02*
G01X16908Y12217D01*
G01X17066Y12372D01*
G01X17066Y11282D01*
G01X6223Y2413D02*
G01X6223Y1323D01*
G01X6223Y2413D02*
G01X6690Y2413D01*
G01X6845Y2362D01*
G01X6898Y2311D01*
G01X6949Y2207D01*
G01X6949Y2103D01*
G01X6898Y1998D01*
G01X6845Y1945D01*
G01X6690Y1894D01*
G01X6223Y1894D01*
G01X6586Y1894D02*
G01X6949Y1323D01*
G01X7345Y2153D02*
G01X7345Y2207D01*
G01X7396Y2311D01*
G01X7449Y2362D01*
G01X7553Y2413D01*
G01X7759Y2413D01*
G01X7863Y2362D01*
G01X7917Y2311D01*
G01X7967Y2207D01*
G01X7967Y2103D01*
G01X7917Y1998D01*
G01X7813Y1841D01*
G01X7292Y1323D01*
G01X8021Y1323D01*
G01X42545Y36703D02*
G01X42545Y35613D01*
G01X42545Y36703D02*
G01X43012Y36703D01*
G01X43167Y36652D01*
G01X43220Y36601D01*
G01X43271Y36497D01*
G01X43271Y36393D01*
G01X43220Y36288D01*
G01X43167Y36235D01*
G01X43012Y36184D01*
G01X42545Y36184D01*
G01X42908Y36184D02*
G01X43271Y35613D01*
G01X44135Y36703D02*
G01X43614Y35976D01*
G01X44394Y35976D01*
G01X44135Y36703D02*
G01X44135Y35613D01*
G01X42799Y33274D02*
G01X42799Y32184D01*
G01X42799Y33274D02*
G01X43266Y33274D01*
G01X43421Y33223D01*
G01X43474Y33172D01*
G01X43525Y33068D01*
G01X43525Y32964D01*
G01X43474Y32859D01*
G01X43421Y32806D01*
G01X43266Y32755D01*
G01X42799Y32755D01*
G01X43162Y32755D02*
G01X43525Y32184D01*
G01X44493Y33274D02*
G01X43972Y33274D01*
G01X43921Y32806D01*
G01X43972Y32859D01*
G01X44129Y32910D01*
G01X44284Y32910D01*
G01X44439Y32859D01*
G01X44543Y32755D01*
G01X44597Y32600D01*
G01X44597Y32496D01*
G01X44543Y32339D01*
G01X44439Y32235D01*
G01X44284Y32184D01*
G01X44129Y32184D01*
G01X43972Y32235D01*
G01X43921Y32288D01*
G01X43868Y32392D01*
G01X27686Y11176D02*
G01X27686Y10086D01*
G01X27686Y11176D02*
G01X28153Y11176D01*
G01X28308Y11125D01*
G01X28361Y11074D01*
G01X28412Y10970D01*
G01X28412Y10866D01*
G01X28361Y10761D01*
G01X28308Y10708D01*
G01X28153Y10657D01*
G01X27686Y10657D01*
G01X28049Y10657D02*
G01X28412Y10086D01*
G01X28859Y11176D02*
G01X29430Y11176D01*
G01X29121Y10761D01*
G01X29276Y10761D01*
G01X29380Y10708D01*
G01X29430Y10657D01*
G01X29484Y10502D01*
G01X29484Y10398D01*
G01X29430Y10241D01*
G01X29326Y10137D01*
G01X29171Y10086D01*
G01X29016Y10086D01*
G01X28859Y10137D01*
G01X28808Y10190D01*
G01X28755Y10294D01*
G01X5715Y33401D02*
G01X5715Y32311D01*
G01X5715Y33401D02*
G01X6182Y33401D01*
G01X6337Y33350D01*
G01X6390Y33299D01*
G01X6441Y33195D01*
G01X6441Y33091D01*
G01X6390Y32986D01*
G01X6337Y32933D01*
G01X6182Y32882D01*
G01X5715Y32882D01*
G01X6078Y32882D02*
G01X6441Y32311D01*
G01X6784Y33195D02*
G01X6888Y33246D01*
G01X7045Y33401D01*
G01X7045Y32311D01*
G01X21844Y37246D02*
G01X22936Y37246D01*
G01X21844Y37246D02*
G01X21844Y37713D01*
G01X21897Y37868D01*
G01X21948Y37922D01*
G01X22052Y37973D01*
G01X22156Y37973D01*
G01X22260Y37922D01*
G01X22311Y37868D01*
G01X22364Y37713D01*
G01X22364Y37246D01*
G01X22364Y37609D02*
G01X22936Y37973D01*
G01X18923Y37269D02*
G01X20012Y37685D01*
G01X18923Y38100D02*
G01X20012Y37685D01*
G01X16002Y37373D02*
G01X17091Y37373D01*
G01X16002Y37373D02*
G01X16002Y37840D01*
G01X16052Y37995D01*
G01X16103Y38049D01*
G01X16207Y38100D01*
G01X16311Y38100D01*
G01X16416Y38049D01*
G01X16469Y37995D01*
G01X16520Y37840D01*
G01X16520Y37373D02*
G01X16520Y37840D01*
G01X16573Y37995D01*
G01X16624Y38049D01*
G01X16728Y38100D01*
G01X16883Y38100D01*
G01X16987Y38049D01*
G01X17040Y37995D01*
G01X17091Y37840D01*
G01X17091Y37373D01*
G01X13334Y37762D02*
G01X14424Y37345D01*
G01X13334Y37762D02*
G01X14424Y38176D01*
G01X14061Y37500D02*
G01X14061Y38021D01*
G01X5334Y35379D02*
G01X5334Y34290D01*
G01X5334Y35379D02*
G01X5801Y35379D01*
G01X5956Y35328D01*
G01X6009Y35278D01*
G01X6060Y35173D01*
G01X6060Y35016D01*
G01X6009Y34912D01*
G01X5956Y34861D01*
G01X5801Y34808D01*
G01X5334Y34808D01*
G01X6456Y35120D02*
G01X6456Y35173D01*
G01X6507Y35278D01*
G01X6560Y35328D01*
G01X6664Y35379D01*
G01X6870Y35379D01*
G01X6974Y35328D01*
G01X7028Y35278D01*
G01X7078Y35173D01*
G01X7078Y35069D01*
G01X7028Y34965D01*
G01X6924Y34808D01*
G01X6403Y34290D01*
G01X7132Y34290D01*
G01X31496Y35560D02*
G01X31496Y34470D01*
G01X31496Y35560D02*
G01X31912Y34470D01*
G01X32326Y35560D02*
G01X31912Y34470D01*
G01X32326Y35560D02*
G01X32326Y34470D01*
G01X32669Y35354D02*
G01X32773Y35405D01*
G01X32931Y35560D01*
G01X32931Y34470D01*
G01X8509Y5079D02*
G01X8509Y3987D01*
G01X8851Y5079D02*
G01X8851Y3987D01*
G01X8851Y5079D02*
G01X9578Y3987D01*
G01X9578Y5079D02*
G01X9578Y3987D01*
G01X10287Y5079D02*
G01X10287Y3987D01*
G01X9921Y5079D02*
G01X10650Y5079D01*
G01X10993Y4871D02*
G01X11097Y4922D01*
G01X11252Y5079D01*
G01X11252Y3987D01*
G01X29464Y33274D02*
G01X29464Y32184D01*
G01X29464Y33274D02*
G01X29931Y33274D01*
G01X30086Y33223D01*
G01X30139Y33172D01*
G01X30190Y33068D01*
G01X30190Y32964D01*
G01X30139Y32859D01*
G01X30086Y32806D01*
G01X29931Y32755D01*
G01X29464Y32755D01*
G01X29827Y32755D02*
G01X30190Y32184D01*
G01X31158Y33119D02*
G01X31104Y33223D01*
G01X30949Y33274D01*
G01X30845Y33274D01*
G01X30690Y33223D01*
G01X30586Y33068D01*
G01X30533Y32806D01*
G01X30533Y32547D01*
G01X30586Y32339D01*
G01X30690Y32235D01*
G01X30845Y32184D01*
G01X30899Y32184D01*
G01X31054Y32235D01*
G01X31158Y32339D01*
G01X31208Y32496D01*
G01X31208Y32547D01*
G01X31158Y32702D01*
G01X31054Y32806D01*
G01X30899Y32859D01*
G01X30845Y32859D01*
G01X30690Y32806D01*
G01X30586Y32702D01*
G01X30533Y32547D01*
G01X2921Y5079D02*
G01X2921Y3987D01*
G01X2921Y5079D02*
G01X3388Y5079D01*
G01X3543Y5026D01*
G01X3596Y4975D01*
G01X3647Y4871D01*
G01X3647Y4716D01*
G01X3596Y4612D01*
G01X3543Y4559D01*
G01X3388Y4508D01*
G01X2921Y4508D01*
G01X4094Y5079D02*
G01X4666Y5079D01*
G01X4356Y4663D01*
G01X4511Y4663D01*
G01X4615Y4612D01*
G01X4666Y4559D01*
G01X4719Y4404D01*
G01X4719Y4300D01*
G01X4666Y4145D01*
G01X4561Y4041D01*
G01X4406Y3987D01*
G01X4251Y3987D01*
G01X4094Y4041D01*
G01X4043Y4091D01*
G01X3990Y4196D01*
G01X74676Y19425D02*
G01X75765Y19425D01*
G01X74676Y19062D02*
G01X74676Y19789D01*
G01X74676Y20132D02*
G01X75765Y20132D01*
G01X74676Y20132D02*
G01X74676Y20599D01*
G01X74726Y20756D01*
G01X74777Y20807D01*
G01X74881Y20861D01*
G01X74985Y20861D01*
G01X75090Y20807D01*
G01X75143Y20756D01*
G01X75194Y20599D01*
G01X75194Y20132D01*
G01X75194Y20497D02*
G01X75765Y20861D01*
G01X74881Y21203D02*
G01X74830Y21308D01*
G01X74676Y21463D01*
G01X75765Y21463D01*
G01X19062Y1524D02*
G01X19062Y693D01*
G01X19009Y538D01*
G01X18958Y485D01*
G01X18854Y434D01*
G01X18750Y434D01*
G01X18646Y485D01*
G01X18592Y538D01*
G01X18542Y693D01*
G01X18542Y797D01*
G01X19405Y1318D02*
G01X19507Y1369D01*
G01X19664Y1524D01*
G01X19664Y434D01*
G01X31000Y1651D02*
G01X31000Y820D01*
G01X30947Y665D01*
G01X30896Y612D01*
G01X30792Y561D01*
G01X30688Y561D01*
G01X30584Y612D01*
G01X30530Y665D01*
G01X30480Y820D01*
G01X30480Y924D01*
G01X31394Y1391D02*
G01X31394Y1445D01*
G01X31445Y1549D01*
G01X31498Y1600D01*
G01X31602Y1651D01*
G01X31811Y1651D01*
G01X31915Y1600D01*
G01X31965Y1549D01*
G01X32016Y1445D01*
G01X32016Y1341D01*
G01X31965Y1237D01*
G01X31861Y1079D01*
G01X31343Y561D01*
G01X32070Y561D01*
G01X39496Y12700D02*
G01X39496Y11607D01*
G01X39496Y12700D02*
G01X39964Y12700D01*
G01X40119Y12646D01*
G01X40172Y12595D01*
G01X40223Y12491D01*
G01X40223Y12336D01*
G01X40172Y12232D01*
G01X40119Y12179D01*
G01X39964Y12128D01*
G01X39496Y12128D01*
G01X41086Y12700D02*
G01X40566Y11971D01*
G01X41346Y11971D01*
G01X41086Y12700D02*
G01X41086Y11607D01*
G01X39751Y5333D02*
G01X39751Y4556D01*
G01X39801Y4399D01*
G01X39905Y4295D01*
G01X40063Y4244D01*
G01X40167Y4244D01*
G01X40322Y4295D01*
G01X40426Y4399D01*
G01X40477Y4556D01*
G01X40477Y5333D01*
G01X40873Y5074D02*
G01X40873Y5128D01*
G01X40924Y5232D01*
G01X40977Y5283D01*
G01X41081Y5333D01*
G01X41287Y5333D01*
G01X41391Y5283D01*
G01X41445Y5232D01*
G01X41495Y5128D01*
G01X41495Y5024D01*
G01X41445Y4919D01*
G01X41341Y4762D01*
G01X40820Y4244D01*
G01X41549Y4244D01*
G54D10*
G75*
G01X18491Y8278D02*
G03X14529Y8278I-1981J1498D01*
G01*
G75*
G01X42494Y1039D02*
G03X38532Y1039I-1981J1498D01*
G01*
G75*
G01X19050Y4064D02*
G03X19050Y4064I-2286J0D01*
G01*
G75*
G01X24130Y4064D02*
G03X24130Y4064I-2286J0D01*
G01*
G75*
G01X35941Y4191D02*
G03X35941Y4191I-2286J0D01*
G01*
G75*
G01X30861Y4191D02*
G03X30861Y4191I-2286J0D01*
G01*
M00*
M02*
