G04 Layer: TopLayer*
G04 EasyEDA v5.9.42, Mon, 25 Mar 2019 11:55:45 GMT*
G04 b1db4e5ec28044f985901455ebfe0152*
G04 Gerber Generator version 0.2*
G04 Scale: 100 percent, Rotated: No, Reflected: No *
G04 Dimensions in millimeters *
G04 leading zeros omitted , absolute positions ,3 integer and 3 decimal *
%FSLAX33Y33*%
%MOMM*%
G90*
G71D02*

%ADD11C,0.152400*%
%ADD12C,0.203200*%
%ADD13C,0.609600*%
%ADD14R,1.778000X1.778000*%
%ADD15C,1.778000*%
%ADD16C,1.879600*%
%ADD17R,1.524000X1.524000*%
%ADD18C,1.524000*%
%ADD19C,1.574800*%
%ADD20R,1.574800X1.574800*%
%ADD21R,1.999996X1.799996*%
%ADD22R,2.032000X2.032000*%
%ADD23C,2.032000*%
%ADD24R,1.799996X1.999996*%
%ADD25C,4.064000*%
%ADD26C,0.999998*%

%LPD*%
G54D11*
G01X3195Y7106D02*
G01X3195Y8237D01*
G01X3195Y8237D02*
G01X4325Y8237D01*
G01X8587Y12499D01*
G01X16916Y12499D01*
G01X25527Y32766D02*
G01X23954Y31193D01*
G01X8333Y31193D01*
G01X6604Y29464D01*
G01X38354Y36195D02*
G01X36238Y34079D01*
G01X25082Y34079D01*
G01X23942Y32938D01*
G01X23942Y32616D01*
G01X22918Y31595D01*
G01X6195Y31595D01*
G01X4064Y29464D01*
G01X13970Y33020D02*
G01X10414Y36576D01*
G01X7366Y36576D01*
G01X16891Y33020D02*
G01X13970Y33020D01*
G01X39110Y8996D02*
G01X40241Y8996D01*
G01X45847Y9906D02*
G01X45440Y10312D01*
G01X40708Y10312D01*
G01X40241Y9845D01*
G01X40241Y8996D01*
G01X22733Y32893D02*
G01X24561Y34721D01*
G01X31800Y34721D01*
G01X33401Y36322D01*
G01X7366Y36576D02*
G01X3556Y32766D01*
G01X1524Y32766D01*
G01X19685Y33020D02*
G01X22606Y33020D01*
G01X22733Y32893D01*
G01X16891Y33020D02*
G01X19685Y33020D01*
G01X48387Y32639D02*
G01X36172Y20424D01*
G01X10264Y20424D01*
G01X4064Y14224D01*
G01X16814Y4064D02*
G01X18061Y4064D01*
G01X18061Y4064D02*
G01X20281Y6283D01*
G01X29651Y6283D01*
G01X33909Y10541D01*
G01X9418Y7106D02*
G01X9418Y5976D01*
G01X9418Y5976D02*
G01X10548Y5976D01*
G01X13985Y2540D01*
G01X39243Y2540D01*
G01X30861Y36322D02*
G01X29456Y37726D01*
G01X5976Y37726D01*
G01X4826Y36576D01*
G54D12*
G01X54851Y2044D02*
G01X54759Y2227D01*
G01X54574Y2413D01*
G01X54391Y2504D01*
G01X54020Y2504D01*
G01X53835Y2413D01*
G01X53652Y2227D01*
G01X53558Y2044D01*
G01X53467Y1765D01*
G01X53467Y1305D01*
G01X53558Y1028D01*
G01X53652Y843D01*
G01X53835Y657D01*
G01X54020Y566D01*
G01X54391Y566D01*
G01X54574Y657D01*
G01X54759Y843D01*
G01X54851Y1028D01*
G01X56200Y2504D02*
G01X55460Y566D01*
G01X56200Y2504D02*
G01X56939Y566D01*
G01X55740Y1211D02*
G01X56662Y1211D01*
G01X57548Y2504D02*
G01X57548Y566D01*
G01X57548Y566D02*
G01X58658Y566D01*
G01X59268Y2504D02*
G01X59268Y566D01*
G01X59877Y2504D02*
G01X59877Y566D01*
G01X59877Y2504D02*
G01X60708Y2504D01*
G01X60985Y2413D01*
G01X61076Y2321D01*
G01X61170Y2136D01*
G01X61170Y1950D01*
G01X61076Y1765D01*
G01X60985Y1673D01*
G01X60708Y1582D01*
G01X59877Y1582D02*
G01X60708Y1582D01*
G01X60985Y1488D01*
G01X61076Y1397D01*
G01X61170Y1211D01*
G01X61170Y934D01*
G01X61076Y749D01*
G01X60985Y657D01*
G01X60708Y566D01*
G01X59877Y566D01*
G01X61780Y2504D02*
G01X61780Y566D01*
G01X61780Y2504D02*
G01X62611Y2504D01*
G01X62887Y2413D01*
G01X62979Y2321D01*
G01X63073Y2136D01*
G01X63073Y1950D01*
G01X62979Y1765D01*
G01X62887Y1673D01*
G01X62611Y1582D01*
G01X61780Y1582D01*
G01X62425Y1582D02*
G01X63073Y566D01*
G01X63682Y2504D02*
G01X63682Y566D01*
G01X63682Y2504D02*
G01X64884Y2504D01*
G01X63682Y1582D02*
G01X64422Y1582D01*
G01X63682Y566D02*
G01X64884Y566D01*
G01X65493Y2504D02*
G01X66786Y566D01*
G01X66786Y2504D02*
G01X65493Y566D01*
G01X67396Y2136D02*
G01X67579Y2227D01*
G01X67856Y2504D01*
G01X67856Y566D01*
G54D14*
G01X39624Y29464D03*
G54D15*
G01X37084Y29464D03*
G01X34544Y29464D03*
G01X32004Y29464D03*
G01X29464Y29464D03*
G01X26924Y29464D03*
G01X24384Y29464D03*
G01X21844Y29464D03*
G01X19304Y29464D03*
G01X16764Y29464D03*
G01X14224Y29464D03*
G01X11684Y29464D03*
G01X9144Y29464D03*
G01X6604Y29464D03*
G01X4064Y29464D03*
G01X39624Y14224D03*
G01X37084Y14224D03*
G01X34544Y14224D03*
G01X32004Y14224D03*
G01X29464Y14224D03*
G01X26924Y14224D03*
G01X24384Y14224D03*
G01X21844Y14224D03*
G01X19304Y14224D03*
G01X16764Y14224D03*
G01X14224Y14224D03*
G01X11684Y14224D03*
G01X9144Y14224D03*
G01X6604Y14224D03*
G01X4064Y14224D03*
G54D16*
G01X2159Y1905D03*
G01X12319Y1905D03*
G01X38354Y36195D03*
G01X48514Y36195D03*
G01X38227Y32639D03*
G01X48387Y32639D03*
G01X23749Y10541D03*
G01X33909Y10541D03*
G01X1524Y32766D03*
G01X11684Y32766D03*
G54D17*
G01X22733Y35433D03*
G54D18*
G01X22733Y32893D03*
G54D17*
G01X19685Y35560D03*
G54D18*
G01X19685Y33020D03*
G54D17*
G01X16891Y35560D03*
G54D18*
G01X16891Y33020D03*
G54D17*
G01X13970Y35560D03*
G54D18*
G01X13970Y33020D03*
G54D19*
G01X7366Y36576D03*
G01X4826Y36576D03*
G54D20*
G01X2286Y36576D03*
G54D19*
G01X33401Y36322D03*
G01X30861Y36322D03*
G54D20*
G01X28321Y36322D03*
G54D21*
G01X9418Y7105D03*
G01X9418Y9645D03*
G54D16*
G01X25527Y32766D03*
G01X35687Y32766D03*
G54D21*
G01X3195Y7105D03*
G01X3195Y9645D03*
G54D22*
G01X16814Y4064D03*
G54D23*
G01X21793Y4064D03*
G54D22*
G01X33604Y4191D03*
G54D23*
G01X28625Y4191D03*
G54D24*
G01X39109Y8996D03*
G01X41649Y8996D03*
G54D25*
G01X30861Y23241D03*
G01X61214Y23241D03*
G54D13*
G01X16916Y12499D03*
G54D23*
G01X46101Y24003D02*
G01X45593Y24003D01*
G01X46101Y21463D02*
G01X45593Y21463D01*
G01X46101Y26543D02*
G01X45593Y26543D01*
G01X46101Y12446D02*
G01X45593Y12446D01*
G01X46101Y9906D02*
G01X45593Y9906D01*
G01X46101Y14986D02*
G01X45593Y14986D01*
G54D26*
G01X15240Y10278D02*
G01X15240Y9279D01*
G01X16510Y10278D02*
G01X16510Y9279D01*
G01X17780Y10278D02*
G01X17780Y9279D01*
G01X39243Y3039D02*
G01X39243Y2040D01*
G01X40513Y3039D02*
G01X40513Y2040D01*
G01X41783Y3039D02*
G01X41783Y2040D01*
M00*
M02*
