;Layer: Drill PTH
;EasyEDA v5.9.42, Mon, 25 Mar 2019 11:55:45 GMT
;b1db4e5ec28044f985901455ebfe0152
;Gerber Generator version 0.2
M48
METRIC,LZ,000.000
;Holesize 1 = 0.305 METRIC
T01C0.305
;Holesize 2 = 0.701 METRIC
T02C0.701
;Holesize 3 = 0.889 METRIC
T03C0.889
;Holesize 4 = 0.900 METRIC
T04C0.900
;Holesize 5 = 0.915 METRIC
T05C0.915
;Holesize 6 = 1.000 METRIC
T06C1.000
;Holesize 7 = 1.001 METRIC
T07C1.001
;Holesize 8 = 1.143 METRIC
T08C1.143
;Holesize 9 = 1.169 METRIC
T09C1.169
;Holesize 10 = 4.000 METRIC
T10C4.000
%
G05
G90
T01
X+016916Y+012499
T02
X+015240Y+009779
X+016510Y+009779
X+017780Y+009779
X+039243Y+002540
X+040513Y+002540
X+041783Y+002540
T03
X+007366Y+036576
X+004826Y+036576
X+002286Y+036576
X+033401Y+036322
X+030861Y+036322
X+028321Y+036322
T04
X+002159Y+001905
X+012319Y+001905
X+038354Y+036195
X+048514Y+036195
X+038227Y+032639
X+048387Y+032639
X+023749Y+010541
X+033909Y+010541
X+001524Y+032766
X+011684Y+032766
X+025527Y+032766
X+035687Y+032766
T05
X+022733Y+035433
X+022733Y+032893
X+019685Y+035560
X+019685Y+033020
X+016891Y+035560
X+016891Y+033020
X+013970Y+035560
X+013970Y+033020
T06
X+009418Y+007105
X+009418Y+009645
X+003195Y+007105
X+003195Y+009645
X+039109Y+008996
X+041649Y+008996
T07
X+073660Y+029210
X+073660Y+008890
X+053340Y+024130
X+053340Y+013970
X+053340Y+029210
X+053340Y+008890
T08
X+039624Y+029464
X+037084Y+029464
X+034544Y+029464
X+032004Y+029464
X+029464Y+029464
X+026924Y+029464
X+024384Y+029464
X+021844Y+029464
X+019304Y+029464
X+016764Y+029464
X+014224Y+029464
X+011684Y+029464
X+009144Y+029464
X+006604Y+029464
X+004064Y+029464
X+039624Y+014224
X+037084Y+014224
X+034544Y+014224
X+032004Y+014224
X+029464Y+014224
X+026924Y+014224
X+024384Y+014224
X+021844Y+014224
X+019304Y+014224
X+016764Y+014224
X+014224Y+014224
X+011684Y+014224
X+009144Y+014224
X+006604Y+014224
X+004064Y+014224
X+045844Y+024003G85X+045849Y+024003
X+045844Y+021463G85X+045849Y+021463
X+045844Y+026543G85X+045849Y+026543
X+045844Y+012446G85X+045849Y+012446
X+045844Y+009906G85X+045849Y+009906
X+045844Y+014986G85X+045849Y+014986
T09
X+016814Y+004064
X+021793Y+004064
X+033604Y+004191
X+028625Y+004191
T10
X+030861Y+023241
X+061214Y+023241
M30
