G04 Layer: BottomLayer*
G04 EasyEDA v5.9.42, Mon, 25 Mar 2019 11:55:45 GMT*
G04 b1db4e5ec28044f985901455ebfe0152*
G04 Gerber Generator version 0.2*
G04 Scale: 100 percent, Rotated: No, Reflected: No *
G04 Dimensions in millimeters *
G04 leading zeros omitted , absolute positions ,3 integer and 3 decimal *
%FSLAX33Y33*%
%MOMM*%
G90*
G71D02*

%ADD11C,0.152400*%
%ADD13C,0.609600*%
%ADD14R,1.778000X1.778000*%
%ADD15C,1.778000*%
%ADD16C,1.879600*%
%ADD17R,1.524000X1.524000*%
%ADD18C,1.524000*%
%ADD19C,1.574800*%
%ADD20R,1.574800X1.574800*%
%ADD21R,1.999996X1.799996*%
%ADD22R,2.032000X2.032000*%
%ADD23C,2.032000*%
%ADD24R,1.799996X1.999996*%
%ADD25C,4.064000*%
%ADD26C,0.999998*%
%ADD27C,2.999994*%

%LPD*%
G54D11*
G01X16916Y12499D02*
G01X18034Y13616D01*
G01X18034Y20574D01*
G01X26924Y29464D01*
G01X26924Y29464D02*
G01X26924Y33240D01*
G01X23611Y36553D01*
G01X13042Y36553D01*
G01X12692Y36202D01*
G01X12692Y33774D01*
G01X11684Y32766D01*
G01X22733Y35433D02*
G01X22733Y34439D01*
G01X22733Y34439D02*
G01X23726Y33446D01*
G01X23726Y30121D01*
G01X24384Y29464D01*
G01X19685Y35560D02*
G01X19685Y34566D01*
G01X19685Y34566D02*
G01X20678Y33573D01*
G01X20678Y30629D01*
G01X21844Y29464D01*
G01X16891Y35560D02*
G01X16891Y34566D01*
G01X16891Y34566D02*
G01X17884Y33573D01*
G01X17884Y30883D01*
G01X19304Y29464D01*
G01X13970Y35560D02*
G01X13970Y34566D01*
G01X13970Y34566D02*
G01X14963Y33573D01*
G01X14963Y31264D01*
G01X16764Y29464D01*
G01X12319Y1905D02*
G01X12954Y2540D01*
G01X12954Y28194D01*
G01X14224Y29464D01*
G01X11684Y29464D02*
G01X10426Y30721D01*
G01X10426Y34373D01*
G01X12915Y36860D01*
G01X26763Y36860D01*
G01X27302Y36322D01*
G01X28321Y36322D02*
G01X27302Y36322D01*
G01X9418Y10777D02*
G01X7874Y12319D01*
G01X7874Y28194D01*
G01X6604Y29464D01*
G01X9418Y9646D02*
G01X9418Y10777D01*
G01X53340Y13970D02*
G01X53086Y13716D01*
G01X43167Y13716D01*
G01X41650Y12197D01*
G01X53340Y13970D02*
G01X53340Y24130D01*
G01X41650Y12197D02*
G01X39624Y14224D01*
G01X41650Y8996D02*
G01X41650Y12197D01*
G01X33604Y4191D02*
G01X34851Y4191D01*
G01X34851Y4191D02*
G01X37820Y1221D01*
G01X40987Y1221D01*
G01X41783Y2014D01*
G01X41783Y2540D01*
G01X41650Y8399D02*
G01X41650Y8996D01*
G01X41650Y8399D02*
G01X41650Y7764D01*
G01X41783Y2540D02*
G01X41783Y7632D01*
G01X41650Y7764D01*
G01X44818Y21958D02*
G01X45313Y21463D01*
G01X45847Y21463D01*
G01X35687Y32766D02*
G01X38463Y29989D01*
G01X38463Y28313D01*
G01X44818Y21958D01*
G01X44818Y21958D02*
G01X37084Y14224D01*
G01X15240Y9779D02*
G01X15440Y9979D01*
G01X15440Y30302D01*
G01X13970Y31772D01*
G01X13970Y33020D01*
G01X33401Y36322D02*
G01X33401Y35052D01*
G01X35687Y32766D01*
G01X39674Y8996D02*
G01X37084Y11587D01*
G01X37084Y14224D01*
G01X39674Y8996D02*
G01X40241Y8996D01*
G01X39110Y8996D02*
G01X39674Y8996D01*
G01X40513Y2540D02*
G01X40513Y8724D01*
G01X40241Y8996D01*
G01X2286Y36576D02*
G01X3304Y36576D01*
G01X3304Y36576D02*
G01X4368Y37640D01*
G01X5295Y37640D01*
G01X6096Y36840D01*
G01X6096Y33032D01*
G01X7874Y31254D01*
G01X7874Y28826D01*
G01X11684Y25016D01*
G01X11684Y14224D01*
G01X53340Y29210D02*
G01X48133Y24003D01*
G01X45847Y24003D01*
G01X48514Y36195D02*
G01X45847Y33528D01*
G01X45847Y26543D01*
G01X53340Y8890D02*
G01X49784Y12446D01*
G01X45847Y12446D01*
G01X38227Y32639D02*
G01X38712Y32639D01*
G01X43334Y28013D01*
G01X43334Y24470D01*
G01X45074Y22733D01*
G01X46603Y22733D01*
G01X47388Y21948D01*
G01X47388Y16527D01*
G01X45847Y14986D01*
G01X2159Y1905D02*
G01X3408Y655D01*
G01X12806Y655D01*
G01X14414Y2263D01*
G01X14414Y4945D01*
G01X16510Y7040D01*
G01X16510Y9779D01*
G01X28625Y4191D02*
G01X27505Y5311D01*
G01X22247Y5311D01*
G01X17780Y9779D01*
G01X73660Y29210D02*
G01X73660Y26708D01*
G01X47764Y812D01*
G01X34500Y812D01*
G01X24772Y10541D01*
G01X23749Y10541D01*
G01X9418Y7106D02*
G01X9418Y8237D01*
G01X5334Y11188D02*
G01X5334Y36068D01*
G01X4826Y36576D01*
G01X9418Y8237D02*
G01X8288Y8237D01*
G01X5334Y11188D01*
G01X3195Y10777D02*
G01X3609Y11188D01*
G01X5334Y11188D01*
G01X3195Y9646D02*
G01X3195Y10777D01*
G01X73660Y8890D02*
G01X65275Y505D01*
G01X25351Y505D01*
G01X21793Y4064D01*
G54D27*
G01X73660Y29210D03*
G01X73660Y8890D03*
G01X53340Y24130D03*
G01X53340Y13970D03*
G01X53340Y29210D03*
G01X53340Y8890D03*
G54D14*
G01X39624Y29464D03*
G54D15*
G01X37084Y29464D03*
G01X34544Y29464D03*
G01X32004Y29464D03*
G01X29464Y29464D03*
G01X26924Y29464D03*
G01X24384Y29464D03*
G01X21844Y29464D03*
G01X19304Y29464D03*
G01X16764Y29464D03*
G01X14224Y29464D03*
G01X11684Y29464D03*
G01X9144Y29464D03*
G01X6604Y29464D03*
G01X4064Y29464D03*
G01X39624Y14224D03*
G01X37084Y14224D03*
G01X34544Y14224D03*
G01X32004Y14224D03*
G01X29464Y14224D03*
G01X26924Y14224D03*
G01X24384Y14224D03*
G01X21844Y14224D03*
G01X19304Y14224D03*
G01X16764Y14224D03*
G01X14224Y14224D03*
G01X11684Y14224D03*
G01X9144Y14224D03*
G01X6604Y14224D03*
G01X4064Y14224D03*
G54D16*
G01X2159Y1905D03*
G01X12319Y1905D03*
G01X38354Y36195D03*
G01X48514Y36195D03*
G01X38227Y32639D03*
G01X48387Y32639D03*
G01X23749Y10541D03*
G01X33909Y10541D03*
G01X1524Y32766D03*
G01X11684Y32766D03*
G54D17*
G01X22733Y35433D03*
G54D18*
G01X22733Y32893D03*
G54D17*
G01X19685Y35560D03*
G54D18*
G01X19685Y33020D03*
G54D17*
G01X16891Y35560D03*
G54D18*
G01X16891Y33020D03*
G54D17*
G01X13970Y35560D03*
G54D18*
G01X13970Y33020D03*
G54D19*
G01X7366Y36576D03*
G01X4826Y36576D03*
G54D20*
G01X2286Y36576D03*
G54D19*
G01X33401Y36322D03*
G01X30861Y36322D03*
G54D20*
G01X28321Y36322D03*
G54D21*
G01X9418Y7105D03*
G01X9418Y9645D03*
G54D16*
G01X25527Y32766D03*
G01X35687Y32766D03*
G54D21*
G01X3195Y7105D03*
G01X3195Y9645D03*
G54D22*
G01X16814Y4064D03*
G54D23*
G01X21793Y4064D03*
G54D22*
G01X33604Y4191D03*
G54D23*
G01X28625Y4191D03*
G54D24*
G01X39109Y8996D03*
G01X41649Y8996D03*
G54D25*
G01X30861Y23241D03*
G01X61214Y23241D03*
G54D13*
G01X16916Y12499D03*
G54D23*
G01X46101Y24003D02*
G01X45593Y24003D01*
G01X46101Y21463D02*
G01X45593Y21463D01*
G01X46101Y26543D02*
G01X45593Y26543D01*
G01X46101Y12446D02*
G01X45593Y12446D01*
G01X46101Y9906D02*
G01X45593Y9906D01*
G01X46101Y14986D02*
G01X45593Y14986D01*
G54D26*
G01X15240Y10278D02*
G01X15240Y9279D01*
G01X16510Y10278D02*
G01X16510Y9279D01*
G01X17780Y10278D02*
G01X17780Y9279D01*
G01X39243Y3039D02*
G01X39243Y2040D01*
G01X40513Y3039D02*
G01X40513Y2040D01*
G01X41783Y3039D02*
G01X41783Y2040D01*
M00*
M02*
